Coordinates
version=1
nRows=5
nColumns=40
inDegrees=yes

Units are S.I. units (second, meters, Newtons, ...)
If the header above contains a line with 'inDegrees', this indicates whether rotational values are in degrees (yes) or radians (no).

endheader
time	pelvis_tilt	pelvis_list	pelvis_rotation	pelvis_tx	pelvis_ty	pelvis_tz	hip_flexion_r	hip_adduction_r	hip_rotation_r	knee_angle_r	knee_angle_r_beta	ankle_angle_r	subtalar_angle_r	mtp_angle_r	hip_flexion_l	hip_adduction_l	hip_rotation_l	knee_angle_l	knee_angle_l_beta	ankle_angle_l	subtalar_angle_l	mtp_angle_l	lumbar_extension	lumbar_bending	lumbar_rotation	arm_flex_r	arm_add_r	arm_rot_r	elbow_flex_r	pro_sup_r	wrist_flex_r	wrist_dev_r	arm_flex_l	arm_add_l	arm_rot_l	elbow_flex_l	pro_sup_l	wrist_flex_l	wrist_dev_l
      2.33000000	    -18.30553014	      6.23518844	     11.59437524	     -2.41629371	      0.93937185	      0.36777028	     19.09898518	    -10.26407214	    -10.75722413	    109.47996713	      1.91078589	    -14.60150474	      0.00000000	      0.00000000	     40.76897351	      7.90240507	     -7.59923517	     40.97299352	      0.71511364	     12.99528375	      0.00000000	      0.00000000	    -23.75172108	    -10.00594600	     -5.52593696	    -12.83038971	    -12.93408476	    -16.83301683	     89.58307033	     30.92171309	      0.00000000	      0.00000000	     -3.62785028	    -25.14896969	     -2.37799799	     99.63135214	     85.24043895	      0.00000000	      0.00000000
      2.33500000	    -18.50492426	      5.82583056	     12.81326823	     -2.38945547	      0.93680063	      0.36540764	     21.77511365	    -10.82869381	    -11.34305733	    112.18865040	      1.95806133	    -13.78148415	      0.00000000	      0.00000000	     39.51780366	      8.39832067	     -6.22058746	     41.88100781	      0.73096148	     15.25955531	      0.00000000	      0.00000000	    -23.35706065	     -9.00074487	     -6.77141192	    -15.26807798	    -12.83072797	    -16.90138779	     88.56671682	     33.67813863	      0.00000000	      0.00000000	     -0.06812903	    -24.74982544	     -0.68015116	    100.39080033	     80.66886965	      0.00000000	      0.00000000
      2.34000000	    -18.72332602	      5.40016800	     14.01460993	     -2.36275733	      0.93456996	      0.36300287	     24.57236666	    -11.46057224	    -11.80938956	    114.61433267	      2.00039748	    -13.00485576	      0.00000000	      0.00000000	     38.21710817	      8.78988285	     -4.82581191	     42.65984542	      0.74455476	     17.35517411	      0.00000000	      0.00000000	    -22.91415036	     -7.98334092	     -8.12042712	    -17.61574903	    -12.80552973	    -16.94782421	     87.51485693	     39.34334127	      0.00000000	      0.00000000	      3.34787769	    -24.32938783	      1.06323009	    101.51378988	     70.29199508	      0.00000000	      0.00000000
      2.34500000	    -18.94919494	      4.94384690	     15.20048382	     -2.33612057	      0.93271771	      0.36060408	     27.46293487	    -12.13444778	    -12.17868247	    116.72567693	      2.03724738	    -12.26702168	      0.00000000	      0.00000000	     36.84620553	      9.05620878	     -3.38240293	     43.26591241	      0.75513263	     19.22963818	      0.00000000	      0.00000000	    -22.43592681	     -6.94275373	     -9.57246263	    -19.81511100	    -12.83285456	    -17.21232777	     86.14483308	     51.58843064	      0.00000000	      0.00000000	      6.63193950	    -23.89939819	      2.52364398	    102.89141088	     58.31364047	      0.00000000	      0.00000000
      2.35000000	    -19.16432824	      4.44124209	     16.37413457	     -2.30946176	      0.93126091	      0.35825653	     30.40629700	    -12.82446249	    -12.48514651	    118.49706128	      2.06816387	    -11.55679536	      0.00000000	      0.00000000	     35.38794811	      9.17509608	     -1.86843119	     43.67207714	      0.76222154	     20.84270859	      0.00000000	      0.00000000	    -21.93664204	     -5.86227121	    -11.10498706	    -21.84502847	    -12.88849634	    -17.92612049	     84.67293138	     69.54969741	      0.00000000	      0.00000000	      9.81099426	    -23.47390526	      3.49857245	    104.17249747	     50.05508576	      0.00000000	      0.00000000
